<?xml version="1.0" encoding="iso-8859-1"?>
<!-- Generator: Adobe Illustrator 19.0.0, SVG Export Plug-In . SVG Version: 6.00 Build 0)  -->
<svg version="1.1" id="Capa_1" xmlns="http://www.w3.org/2000/svg" xmlns:xlink="http://www.w3.org/1999/xlink" x="0px" y="0px"
	 viewBox="0 0 512 512" style="enable-background:new 0 0 512 512;" xml:space="preserve">
<g>
	<g>
		<path d="M490.667,117.333H21.333C9.557,117.333,0,126.891,0,138.667V416c0,47.061,38.272,85.333,85.333,85.333h405.333
			c11.797,0,21.333-9.536,21.333-21.333V138.667C512,126.891,502.464,117.333,490.667,117.333z M469.333,458.667h-384
			c-23.531,0-42.667-19.136-42.667-42.667V160h426.667V458.667z"/>
	</g>
</g>
<g>
	<g>
		<path d="M405.333,10.667h-320C38.272,10.667,0,48.939,0,96v42.667C0,150.443,9.557,160,21.333,160h384
			c11.797,0,21.333-9.557,21.333-21.333V32C426.667,20.224,417.131,10.667,405.333,10.667z M384,117.333H42.667V96
			c0-23.531,19.136-42.667,42.667-42.667H384V117.333z"/>
	</g>
</g>
<g>
	<g>
		<path d="M490.667,224h-64c-47.061,0-85.333,38.272-85.333,85.333c0,47.061,38.272,85.333,85.333,85.333h64
			c11.797,0,21.333-9.536,21.333-21.333v-128C512,233.557,502.464,224,490.667,224z M469.333,352h-42.667
			C403.136,352,384,332.864,384,309.333c0-23.531,19.136-42.667,42.667-42.667h42.667V352z"/>
	</g>
</g>
<g>
</g>
<g>
</g>
<g>
</g>
<g>
</g>
<g>
</g>
<g>
</g>
<g>
</g>
<g>
</g>
<g>
</g>
<g>
</g>
<g>
</g>
<g>
</g>
<g>
</g>
<g>
</g>
<g>
</g>
</svg>
