<?xml version="1.0" encoding="iso-8859-1"?>
<!-- Generator: Adobe Illustrator 19.0.0, SVG Export Plug-In . SVG Version: 6.00 Build 0)  -->
<svg version="1.1" id="Capa_1" xmlns="http://www.w3.org/2000/svg" xmlns:xlink="http://www.w3.org/1999/xlink" x="0px" y="0px"
	 viewBox="0 0 512 512" style="enable-background:new 0 0 512 512;" xml:space="preserve">
<g>
	<g>
		<path d="M362.667,119.531V42.667C362.667,19.136,343.531,0,320,0H192c-23.531,0-42.667,19.136-42.667,42.667v76.864
			C108.779,151.296,82.56,200.597,82.56,256s26.219,104.704,66.773,136.469v76.864C149.333,492.864,168.469,512,192,512h128
			c23.531,0,42.667-19.136,42.667-42.667v-76.864C403.221,360.704,429.44,311.403,429.44,256S403.221,151.296,362.667,119.531z
			 M320,42.667v52.288c-19.819-7.915-41.387-12.395-64-12.395s-44.181,4.48-64.021,12.395l0-52.288H320z M320,469.333H192v-52.288
			c19.819,7.915,41.387,12.395,64,12.395s44.181-4.48,64-12.395V469.333z M256,386.773c-72.107,0-130.773-58.667-130.773-130.773
			S183.893,125.227,256,125.227S386.773,183.893,386.773,256S328.107,386.773,256,386.773z"/>
	</g>
</g>
<g>
	<g>
		<path d="M315.563,280.128l-34.325-30.293l-3.904-8.96V192c0-11.776-9.557-21.333-21.333-21.333s-21.333,9.557-21.333,21.333v64
			c0,6.123,2.624,11.947,7.211,16l45.44,40.107c4.053,3.563,9.088,5.333,14.101,5.333c5.909,0,11.797-2.432,16.021-7.211
			C325.248,301.397,324.395,287.915,315.563,280.128z"/>
	</g>
</g>
<g>
</g>
<g>
</g>
<g>
</g>
<g>
</g>
<g>
</g>
<g>
</g>
<g>
</g>
<g>
</g>
<g>
</g>
<g>
</g>
<g>
</g>
<g>
</g>
<g>
</g>
<g>
</g>
<g>
</g>
</svg>
