<?xml version="1.0" encoding="iso-8859-1"?>
<!-- Generator: Adobe Illustrator 19.0.0, SVG Export Plug-In . SVG Version: 6.00 Build 0)  -->
<svg version="1.1" id="Capa_1" xmlns="http://www.w3.org/2000/svg" xmlns:xlink="http://www.w3.org/1999/xlink" x="0px" y="0px"
	 viewBox="0 0 512 512" style="enable-background:new 0 0 512 512;" xml:space="preserve">
<g>
	<g>
		<path d="M448,32H64C28.715,32,0,60.715,0,96v320c0,35.285,28.715,64,64,64h384c35.285,0,64-28.715,64-64V96
			C512,60.715,483.285,32,448,32z M469.333,416c0,11.755-9.579,21.333-21.333,21.333H64c-11.755,0-21.333-9.579-21.333-21.333
			v-21.333h426.667V416z M469.333,352H42.667V96c0-11.755,9.579-21.333,21.333-21.333h384c11.755,0,21.333,9.579,21.333,21.333V352z
			"/>
	</g>
</g>
<g>
	<g>
		<path d="M340.928,189.376l-125.653-76.8c-6.571-4.053-14.827-4.181-21.568-0.405c-6.72,3.776-10.88,10.88-10.88,18.603v153.6
			c0,7.723,4.16,14.827,10.901,18.603c3.243,1.813,6.848,2.731,10.432,2.731c3.861,0,7.723-1.045,11.115-3.136l125.653-76.8
			c6.336-3.883,10.219-10.773,10.219-18.197C351.147,200.149,347.285,193.259,340.928,189.376z M225.493,246.336v-77.525
			l63.424,38.763L225.493,246.336z"/>
	</g>
</g>
<g>
</g>
<g>
</g>
<g>
</g>
<g>
</g>
<g>
</g>
<g>
</g>
<g>
</g>
<g>
</g>
<g>
</g>
<g>
</g>
<g>
</g>
<g>
</g>
<g>
</g>
<g>
</g>
<g>
</g>
</svg>
