<?xml version="1.0" encoding="iso-8859-1"?>
<!-- Generator: Adobe Illustrator 19.0.0, SVG Export Plug-In . SVG Version: 6.00 Build 0)  -->
<svg version="1.1" id="Capa_1" xmlns="http://www.w3.org/2000/svg" xmlns:xlink="http://www.w3.org/1999/xlink" x="0px" y="0px"
	 viewBox="0 0 512.003 512.003" style="enable-background:new 0 0 512.003 512.003;" xml:space="preserve">
<g>
	<g>
		<path d="M500.376,23.254c0-7.541-3.631-14.593-9.775-18.945c-6.144-4.375-13.988-5.469-21.109-3.049L166.933,105.992
			c-9.379,3.235-15.663,12.079-15.663,21.994v210.767c-13.755-8.006-29.511-12.94-46.548-12.94
			c-51.342,0-93.095,41.753-93.095,93.095c0,51.342,41.753,93.095,93.095,93.095c47.339,0,86.113-35.655,91.908-81.458h1.187
			V144.557L453.829,55.93v213.002c-13.755-8.006-29.511-12.94-46.548-12.94c-51.342,0-93.095,41.753-93.095,93.095
			c0,51.342,41.753,93.095,93.095,93.095c51.319,0,93.095-41.753,93.095-93.095c0-3.98-0.698-7.773-1.187-11.637h1.187V23.254z
			 M104.722,465.456c-25.671,0-46.548-20.877-46.548-46.548c0-25.671,20.877-46.548,46.548-46.548
			c25.671,0,46.548,20.877,46.548,46.548S130.393,465.456,104.722,465.456z M407.281,395.634c-25.671,0-46.548-20.877-46.548-46.548
			c0-25.671,20.877-46.548,46.548-46.548c25.671,0,46.548,20.877,46.548,46.548S432.952,395.634,407.281,395.634z"/>
	</g>
</g>
<g>
</g>
<g>
</g>
<g>
</g>
<g>
</g>
<g>
</g>
<g>
</g>
<g>
</g>
<g>
</g>
<g>
</g>
<g>
</g>
<g>
</g>
<g>
</g>
<g>
</g>
<g>
</g>
<g>
</g>
</svg>
