<?xml version="1.0" encoding="iso-8859-1"?>
<!-- Generator: Adobe Illustrator 19.0.0, SVG Export Plug-In . SVG Version: 6.00 Build 0)  -->
<svg version="1.1" id="Capa_1" xmlns="http://www.w3.org/2000/svg" xmlns:xlink="http://www.w3.org/1999/xlink" x="0px" y="0px"
	 viewBox="0 0 512 512" style="enable-background:new 0 0 512 512;" xml:space="preserve">
<g>
	<g>
		<path d="M403.571,171.597H108.409c-24.295,0-44.045,19.751-44.045,44.045v252.313c0,24.295,19.751,44.045,44.045,44.045h295.182
			c24.275,0,44.025-19.751,44.045-44.045V215.642C447.636,191.347,427.866,171.597,403.571,171.597z M407.776,467.955
			c0,2.312-1.893,4.185-4.205,4.185H108.409c-2.312,0-4.185-1.873-4.185-4.185V215.642c0-2.312,1.873-4.185,4.185-4.185h295.162
			c2.312,0,4.205,1.873,4.205,4.185V467.955z"/>
	</g>
</g>
<g>
	<g>
		<path d="M256.11,0h-0.399c-70.114,0-127.153,57.039-127.153,127.153v84.304h254.685h0.02v-84.304
			C383.263,57.039,326.223,0,256.11,0z M343.403,171.597H168.418c-0.02,0-0.02-44.444,0-44.444
			c0-48.131,39.162-87.293,87.293-87.293h0.399c48.131,0,87.293,39.162,87.293,87.293V171.597z"/>
	</g>
</g>
<g>
	<g>
		<rect x="84.294" y="380.861" width="343.393" height="39.86"/>
	</g>
</g>
<g>
	<g>
		<circle cx="256.11" cy="298.949" r="42.849"/>
	</g>
</g>
<g>
</g>
<g>
</g>
<g>
</g>
<g>
</g>
<g>
</g>
<g>
</g>
<g>
</g>
<g>
</g>
<g>
</g>
<g>
</g>
<g>
</g>
<g>
</g>
<g>
</g>
<g>
</g>
<g>
</g>
</svg>
