<?xml version="1.0" encoding="iso-8859-1"?>
<!-- Generator: Adobe Illustrator 19.0.0, SVG Export Plug-In . SVG Version: 6.00 Build 0)  -->
<svg version="1.1" id="Capa_1" xmlns="http://www.w3.org/2000/svg" xmlns:xlink="http://www.w3.org/1999/xlink" x="0px" y="0px"
	 viewBox="0 0 511.963 511.963" style="enable-background:new 0 0 511.963 511.963;" xml:space="preserve">
<g>
	<g>
		<path d="M445.867,298.189v-84.561c26.409-5.389,46.345-28.782,46.345-56.754c0-31.945-25.986-57.931-57.931-57.931
			c-15.963,0-30.455,6.492-40.938,16.975l-80.497-46.474c0.754-3.733,1.159-7.577,1.159-11.513C314.005,25.986,288.018,0,256.074,0
			s-57.931,25.986-57.931,57.931c0,3.936,0.405,7.779,1.159,11.494l-80.662,46.51c-10.483-10.501-24.975-17.012-40.956-17.012
			c-31.945,0-57.931,25.986-57.931,57.931c0,27.972,19.936,51.384,46.345,56.754v84.561c-26.409,5.388-46.345,28.782-46.345,56.736
			c0,31.945,25.986,57.931,57.931,57.931c15.963,0,30.437-6.492,40.919-16.975l80.699,46.639c-0.754,3.733-1.177,7.595-1.177,11.549
			c0,31.926,25.986,57.913,57.931,57.913s57.931-25.986,57.931-57.913c0-3.972-0.405-7.834-1.177-11.586l80.533-46.584
			c10.483,10.464,24.956,16.956,40.901,16.956c31.945,0,57.931-25.986,57.931-57.931
			C492.211,326.97,472.276,303.559,445.867,298.189z M409.085,303.025c-19.292,9.416-32.736,29.039-32.736,51.899
			c0,2.685,0.441,5.26,0.791,7.871l-82.961,48c-10.207-8.993-23.448-14.639-38.106-14.639c-14.657,0-27.917,5.646-38.124,14.657
			l-83.126-48.037c0.349-2.593,0.791-5.168,0.791-7.853c0-22.86-13.444-42.501-32.736-51.899c0-33.729,0-60.506,0-94.253
			c19.292-9.416,32.736-29.039,32.736-51.917c0-2.667-0.441-5.223-0.791-7.816l83.071-47.89
			c10.225,9.03,23.503,14.694,38.179,14.694c14.676,0,27.936-5.664,38.161-14.676l82.906,47.871
			c-0.349,2.593-0.791,5.149-0.791,7.834c0,22.878,13.444,42.52,32.736,51.917V303.025z"/>
	</g>
</g>
<g>
</g>
<g>
</g>
<g>
</g>
<g>
</g>
<g>
</g>
<g>
</g>
<g>
</g>
<g>
</g>
<g>
</g>
<g>
</g>
<g>
</g>
<g>
</g>
<g>
</g>
<g>
</g>
<g>
</g>
</svg>
