<?xml version="1.0" encoding="iso-8859-1"?>
<!-- Generator: Adobe Illustrator 19.0.0, SVG Export Plug-In . SVG Version: 6.00 Build 0)  -->
<svg version="1.1" id="Capa_1" xmlns="http://www.w3.org/2000/svg" xmlns:xlink="http://www.w3.org/1999/xlink" x="0px" y="0px"
	 viewBox="0 0 512 512" style="enable-background:new 0 0 512 512;" xml:space="preserve">
<g>
	<g>
		<path d="M448,64H64C28.715,64,0,92.715,0,128v256c0,35.285,28.715,64,64,64h384c35.285,0,64-28.715,64-64V128
			C512,92.715,483.285,64,448,64z M469.333,384c0,11.776-9.557,21.333-21.333,21.333H64c-11.755,0-21.333-9.557-21.333-21.333
			V277.333h426.667V384z M469.333,234.667H42.667V192h426.667V234.667z M469.333,149.333H42.667V128
			c0-11.755,9.579-21.333,21.333-21.333h384c11.776,0,21.333,9.579,21.333,21.333V149.333z"/>
	</g>
</g>
<g>
	<g>
		<rect x="85.333" y="320" width="85.333" height="42.667"/>
	</g>
</g>
<g>
	<g>
		<rect x="213.333" y="320" width="64" height="42.667"/>
	</g>
</g>
<g>
</g>
<g>
</g>
<g>
</g>
<g>
</g>
<g>
</g>
<g>
</g>
<g>
</g>
<g>
</g>
<g>
</g>
<g>
</g>
<g>
</g>
<g>
</g>
<g>
</g>
<g>
</g>
<g>
</g>
</svg>
