<?xml version="1.0" encoding="iso-8859-1"?>
<!-- Generator: Adobe Illustrator 19.0.0, SVG Export Plug-In . SVG Version: 6.00 Build 0)  -->
<svg version="1.1" id="Capa_1" xmlns="http://www.w3.org/2000/svg" xmlns:xlink="http://www.w3.org/1999/xlink" x="0px" y="0px"
	 viewBox="0 0 512 512" style="enable-background:new 0 0 512 512;" xml:space="preserve">
<g>
	<g>
		<path d="M384,0H128C92.651,0,64,28.651,64,64v384c0,35.349,28.651,64,64,64h256c35.349,0,64-28.651,64-64V64
			C448,28.651,419.349,0,384,0z M405.333,448c0,11.776-9.557,21.333-21.333,21.333H128c-11.776,0-21.333-9.557-21.333-21.333V64
			c0-11.776,9.557-21.333,21.333-21.333h256c11.776,0,21.333,9.557,21.333,21.333V448z"/>
	</g>
</g>
<g>
	<g>
		<path d="M185.813,219.52c-8.363-8.363-21.931-8.363-30.293,0c-3.989,4.032-6.229,9.472-6.187,15.147
			c0.043,2.795,0.619,5.547,1.707,8.107c1.941,5.355,6.165,9.579,11.52,11.52c2.56,1.088,5.312,1.664,8.107,1.707
			c5.675,0.043,11.115-2.197,15.147-6.187C194.176,241.451,194.176,227.883,185.813,219.52z"/>
	</g>
</g>
<g>
	<g>
		<path d="M185.813,304.853c-6.144-6.059-15.317-7.829-23.253-4.48c-2.645,0.981-5.035,2.496-7.04,4.48
			c-0.043,0.043-0.085,0.085-0.128,0.128c-8.299,8.363-8.235,21.867,0.128,30.165c2.005,1.963,4.395,3.499,7.04,4.48
			c2.56,1.088,5.312,1.664,8.107,1.707c5.675,0.043,11.115-2.197,15.147-6.187c0.043-0.043,0.085-0.085,0.128-0.128
			C194.24,326.656,194.176,313.152,185.813,304.853z"/>
	</g>
</g>
<g>
	<g>
		<path d="M271.019,219.648c-8.299-8.363-21.803-8.427-30.165-0.128c-3.989,4.032-6.229,9.472-6.187,15.147
			c0.043,2.795,0.619,5.547,1.707,8.107c1.024,2.624,2.539,5.013,4.48,7.04c2.069,1.877,4.459,3.392,7.04,4.48
			c2.56,1.088,5.312,1.664,8.107,1.707c5.589-0.043,10.944-2.261,14.891-6.187C279.253,241.515,279.317,228.011,271.019,219.648z"/>
	</g>
</g>
<g>
	<g>
		<path d="M271.019,304.768c-8.299-8.363-21.803-8.427-30.165-0.128c-3.989,4.032-6.229,9.472-6.187,15.147
			c0.043,2.795,0.619,5.547,1.707,8.107c1.024,2.624,2.539,5.013,4.48,7.04c2.069,1.877,4.459,3.392,7.04,4.48
			c2.56,1.088,5.312,1.664,8.107,1.707c5.589-0.043,10.944-2.261,14.891-6.187C279.253,326.635,279.317,313.131,271.019,304.768z"/>
	</g>
</g>
<g>
	<g>
		<path d="M185.813,390.187c-6.144-6.059-15.317-7.829-23.253-4.48c-2.645,0.981-5.035,2.496-7.04,4.48
			c-0.043,0.043-0.085,0.085-0.128,0.128c-8.299,8.363-8.235,21.867,0.128,30.165c2.005,1.963,4.395,3.499,7.04,4.48
			c2.56,1.088,5.312,1.664,8.107,1.707c5.675,0.043,11.115-2.197,15.147-6.187c0.043-0.043,0.085-0.085,0.128-0.128
			C194.24,411.989,194.176,398.485,185.813,390.187z"/>
	</g>
</g>
<g>
	<g>
		<path d="M271.019,390.101c-8.299-8.363-21.803-8.427-30.165-0.128c-3.989,4.032-6.229,9.472-6.187,15.147
			c0.043,2.795,0.619,5.547,1.707,8.107c1.024,2.624,2.539,5.013,4.48,7.04c2.069,1.877,4.459,3.392,7.04,4.48
			c2.56,1.088,5.312,1.664,8.107,1.707c5.589-0.043,10.944-2.261,14.891-6.187C279.253,411.968,279.317,398.464,271.019,390.101z"/>
	</g>
</g>
<g>
	<g>
		<path d="M356.48,219.52c-6.144-6.059-15.317-7.829-23.253-4.48c-2.581,1.088-4.971,2.603-7.04,4.48
			c-3.989,4.032-6.229,9.472-6.187,15.147c0.043,2.795,0.619,5.547,1.707,8.107c1.024,2.624,2.539,5.013,4.48,7.04
			c2.069,1.877,4.459,3.392,7.04,4.48c2.56,1.088,5.312,1.664,8.107,1.707c5.653-0.085,11.051-2.283,15.147-6.187
			c1.941-2.027,3.456-4.416,4.48-7.04c1.088-2.56,1.664-5.312,1.707-8.107C362.709,228.992,360.469,223.552,356.48,219.52z"/>
	</g>
</g>
<g>
	<g>
		<path d="M341.333,298.667C329.557,298.667,320,308.224,320,320v85.333c0,11.776,9.557,21.333,21.333,21.333
			c11.776,0,21.333-9.557,21.333-21.333V320C362.667,308.224,353.109,298.667,341.333,298.667z"/>
	</g>
</g>
<g>
	<g>
		<rect x="106.667" y="127.787" width="298.667" height="42.667"/>
	</g>
</g>
<g>
</g>
<g>
</g>
<g>
</g>
<g>
</g>
<g>
</g>
<g>
</g>
<g>
</g>
<g>
</g>
<g>
</g>
<g>
</g>
<g>
</g>
<g>
</g>
<g>
</g>
<g>
</g>
<g>
</g>
</svg>
