<?xml version="1.0" encoding="iso-8859-1"?>
<!-- Generator: Adobe Illustrator 19.0.0, SVG Export Plug-In . SVG Version: 6.00 Build 0)  -->
<svg version="1.1" id="Capa_1" xmlns="http://www.w3.org/2000/svg" xmlns:xlink="http://www.w3.org/1999/xlink" x="0px" y="0px"
	 viewBox="0 0 512.004 512.004" style="enable-background:new 0 0 512.004 512.004;" xml:space="preserve">
<g>
	<g>
		<path d="M59.226,244.977v-40.128c8.56,1.444,16.631,4.956,23.531,10.231c1.432,0.989,3.149,1.501,4.888,1.478
			c5.354,0,9.719-4.308,9.776-9.662c0.011-2.296-0.887-4.502-2.501-6.139c-9.969-8.537-22.474-13.573-35.581-14.323v-13.528
			c0-3.831-3.103-6.934-6.934-6.934c-0.08-0.011-0.159-0.011-0.239-0.011c-3.888-0.057-7.093,3.058-7.15,6.946v13.073
			c-25.577,1.819-42.97,17.734-42.97,38.536c0,25.805,21.94,32.966,42.97,38.65v45.471c-11.095-1.489-21.553-6.093-30.124-13.3
			c-1.614-1.285-3.615-2.001-5.684-2.046c-5.24,0.364-9.276,4.752-9.208,10.004c-0.011,2.296,0.887,4.513,2.501,6.139
			c11.709,10.549,26.759,16.62,42.515,17.165v12.504c0,0.08,0.011,0.159,0.011,0.239c0.182,3.888,3.49,6.889,7.378,6.696
			c3.831,0,6.934-3.103,6.934-6.934V326.37c31.147-2.387,43.652-20.348,43.425-40.696
			C102.765,258.846,80.257,250.661,59.226,244.977z M45.017,241.226c-12.504-3.41-22.053-7.73-22.053-18.302
			c0-10.572,8.753-18.188,22.053-19.211V241.226z M82.075,287.378c0,8.639-5.911,18.87-22.735,20.917v-41.037
			C72.299,271.123,82.758,276.011,82.075,287.378z"/>
	</g>
</g>
<g>
	<g>
		<path d="M195.638,244.977v-40.128c8.56,1.444,16.631,4.956,23.531,10.231c1.41,0.966,3.069,1.478,4.774,1.478
			c5.354,0,9.719-4.308,9.776-9.663c0.011-2.296-0.887-4.502-2.501-6.139c-9.969-8.537-22.474-13.573-35.581-14.323v-13.528
			c0-3.831-3.103-6.934-6.934-6.934c-0.08-0.011-0.159-0.011-0.239-0.011c-3.888-0.057-7.093,3.058-7.15,6.946v12.959
			c-25.577,1.819-42.97,17.62-42.97,38.65c0,25.805,21.94,32.966,42.97,38.65v45.471c-11.095-1.489-21.553-6.093-30.124-13.3
			c-1.614-1.285-3.615-2.001-5.684-2.046c-5.24,0.364-9.276,4.752-9.208,10.004c-0.011,2.296,0.887,4.502,2.501,6.139
			c11.743,10.572,26.839,16.654,42.629,17.165v12.504c0,0.08,0.011,0.159,0.011,0.239c0.182,3.888,3.49,6.889,7.378,6.696
			c3.831,0,6.934-3.103,6.934-6.934V326.37c31.147-2.387,43.652-20.348,43.424-40.696
			C239.177,258.846,216.669,250.661,195.638,244.977z M159.376,222.924c0-10.572,8.753-18.188,22.053-19.211c0,0,0,37.172,0,37.172
			C169.038,237.247,159.376,233.496,159.376,222.924z M218.488,287.378c0,8.639-5.911,18.87-22.735,20.917v-41.037
			C208.711,271.123,219.17,276.011,218.488,287.378z"/>
	</g>
</g>
<g>
	<g>
		<path d="M332.051,244.977v-40.128c8.56,1.444,16.631,4.956,23.531,10.231c1.41,0.966,3.069,1.478,4.774,1.478
			c5.354,0,9.719-4.308,9.776-9.663c0.011-2.296-0.887-4.502-2.501-6.139c-9.969-8.537-22.474-13.573-35.581-14.323v-13.528
			c0-3.831-3.103-6.934-6.934-6.934c-0.08-0.011-0.159-0.011-0.239-0.011c-3.888-0.057-7.093,3.058-7.15,6.946v12.959
			c-25.577,1.819-42.97,17.62-42.97,38.65c0,25.805,21.94,32.966,42.97,38.65v45.471c-11.095-1.489-21.553-6.093-30.124-13.3
			c-1.614-1.285-3.615-2.001-5.684-2.046c-5.24,0.364-9.276,4.752-9.208,10.004c-0.011,2.296,0.887,4.502,2.501,6.139
			c11.743,10.572,26.839,16.654,42.629,17.165v12.504c0,0.08,0.011,0.159,0.011,0.239c0.182,3.888,3.49,6.889,7.378,6.696
			c3.831,0,6.934-3.103,6.934-6.934V326.37c31.147-2.387,43.652-20.348,43.425-40.696
			C375.589,258.846,353.081,250.661,332.051,244.977z M317.841,240.885c-12.391-3.638-22.053-7.389-22.053-17.961
			c0-10.572,8.753-18.188,22.053-19.211V240.885z M354.9,287.378c0,8.639-5.911,18.87-22.735,20.917v-41.037
			C345.123,271.123,355.582,276.011,354.9,287.378z"/>
	</g>
</g>
<g>
	<g>
		<path d="M468.463,244.977v-40.128c8.56,1.444,16.631,4.956,23.531,10.231c1.41,0.966,3.069,1.478,4.774,1.478
			c5.354,0,9.719-4.308,9.776-9.663c0.011-2.296-0.887-4.502-2.501-6.139c-9.969-8.537-22.474-13.573-35.581-14.323v-13.528
			c0-3.831-3.103-6.934-6.934-6.934c-0.08-0.011-0.159-0.011-0.239-0.011c-3.888-0.057-7.093,3.058-7.15,6.946v12.959
			c-25.577,1.819-42.97,17.62-42.97,38.65c0,25.805,21.94,32.966,42.97,38.65v45.471c-11.095-1.489-21.553-6.093-30.124-13.3
			c-1.614-1.285-3.615-2.001-5.684-2.046c-5.241,0.364-9.276,4.752-9.208,10.004c-0.011,2.296,0.887,4.502,2.501,6.139
			c11.743,10.572,26.839,16.654,42.629,17.165v12.504c0,0.08,0.011,0.159,0.011,0.239c0.182,3.888,3.49,6.889,7.378,6.696
			c3.831,0,6.934-3.103,6.934-6.934V326.37c31.147-2.387,43.652-20.348,43.425-40.696
			C512.001,258.846,489.493,250.661,468.463,244.977z M454.253,240.885c-12.391-3.638-22.053-7.389-22.053-17.961
			c0-10.572,8.753-18.188,22.053-19.211V240.885z M491.312,287.378c0,8.639-5.911,18.87-22.735,20.917v-41.037
			C481.535,271.123,491.994,276.011,491.312,287.378z"/>
	</g>
</g>
<g>
</g>
<g>
</g>
<g>
</g>
<g>
</g>
<g>
</g>
<g>
</g>
<g>
</g>
<g>
</g>
<g>
</g>
<g>
</g>
<g>
</g>
<g>
</g>
<g>
</g>
<g>
</g>
<g>
</g>
</svg>
