<?xml version="1.0" encoding="iso-8859-1"?>
<!-- Generator: Adobe Illustrator 19.0.0, SVG Export Plug-In . SVG Version: 6.00 Build 0)  -->
<svg version="1.1" id="Capa_1" xmlns="http://www.w3.org/2000/svg" xmlns:xlink="http://www.w3.org/1999/xlink" x="0px" y="0px"
	 viewBox="0 0 512.001 512.001" style="enable-background:new 0 0 512.001 512.001;" xml:space="preserve">
<g>
	<g>
		<path d="M81.389,240.917v-54.62c11.651,1.965,22.637,6.746,32.029,13.926c1.872,1.284,4.069,1.981,6.344,2.011
			c7.288,0,13.229-5.864,13.307-13.152c0.016-3.126-1.207-6.127-3.404-8.355c-13.57-11.62-30.59-18.475-48.43-19.496v-18.413
			c0-5.214-4.224-9.439-9.438-9.439c-0.108-0.015-0.217-0.015-0.325-0.015c-5.292-0.077-9.655,4.162-9.732,9.454v17.639
			C26.924,162.933,3.25,184.44,3.25,213.065c0,35.124,29.863,44.872,58.488,52.608v61.892c-15.256-1.888-29.646-8.123-41.467-17.949
			c-2.197-1.748-4.92-2.723-7.737-2.785c-7.133,0.495-12.626,6.468-12.533,13.616c-0.016,3.126,1.207,6.127,3.404,8.355
			c15.984,14.39,36.532,22.668,58.024,23.364v17.02c0,0.108,0.016,0.217,0.016,0.325c0.248,5.292,4.75,9.377,10.042,9.114
			c5.214,0,9.438-4.224,9.438-9.438v-17.33c42.705-3.404,59.261-28.47,59.726-55.548C140.65,259.794,110.014,248.653,81.389,240.917
			z M61.738,235.811c-16.865-4.951-30.018-10.057-30.018-24.447s11.914-24.757,30.018-26.149V235.811z M81.234,327.565v-56.229
			c17.33,5.245,30.946,12.069,30.946,27.758C112.18,310.854,104.134,324.78,81.234,327.565z"/>
	</g>
</g>
<g>
	<g>
		<path d="M267.064,240.917v-54.62c11.651,1.965,22.637,6.746,32.029,13.926c1.872,1.284,4.069,1.981,6.344,2.011
			c7.288,0,13.229-5.864,13.307-13.152c0.015-3.126-1.207-6.127-3.404-8.355c-13.57-11.62-30.59-18.475-48.43-19.496v-18.413
			c0-5.214-4.224-9.439-9.439-9.439c-0.108-0.015-0.217-0.015-0.325-0.015c-5.292-0.077-9.655,4.162-9.732,9.454v17.639
			c-34.814,2.476-58.488,23.983-58.488,52.608c0,35.124,29.863,44.872,58.488,52.608v61.892
			c-15.256-1.888-29.646-8.123-41.468-17.949c-2.197-1.748-4.92-2.723-7.737-2.785c-7.133,0.495-12.626,6.468-12.533,13.616
			c-0.016,3.126,1.207,6.127,3.404,8.355c15.984,14.39,36.532,22.668,58.024,23.364v17.02c0,0.108,0.016,0.217,0.016,0.325
			c0.248,5.292,4.75,9.377,10.042,9.114c5.214,0,9.439-4.224,9.439-9.438v-17.33c42.705-3.404,59.261-28.47,59.726-55.548
			C326.326,259.794,295.689,248.653,267.064,240.917z M247.414,235.811c-16.866-4.951-30.018-10.057-30.018-24.447
			s11.914-24.757,30.018-26.149V235.811z M266.91,327.565v-56.229c17.33,5.245,30.946,12.069,30.946,27.758
			C297.856,310.854,289.81,324.78,266.91,327.565z"/>
	</g>
</g>
<g>
	<g>
		<path d="M452.74,240.917v-54.62c11.651,1.965,22.637,6.746,32.029,13.926c1.872,1.284,4.069,1.981,6.344,2.011
			c7.288,0,13.229-5.864,13.307-13.152c0.016-3.126-1.207-6.127-3.404-8.355c-13.57-11.62-30.59-18.475-48.43-19.496v-18.413
			c0-5.214-4.224-9.439-9.438-9.439c-0.108-0.015-0.217-0.015-0.325-0.015c-5.292-0.077-9.655,4.162-9.732,9.454v17.639
			c-34.814,2.476-58.488,23.983-58.488,52.608c0,35.124,29.863,44.872,58.488,52.608v61.892
			c-15.256-1.888-29.646-8.123-41.468-17.949c-2.197-1.748-4.92-2.723-7.736-2.785c-7.133,0.495-12.626,6.468-12.533,13.616
			c-0.016,3.126,1.207,6.127,3.404,8.355c15.984,14.39,36.532,22.668,58.024,23.364v17.02c0,0.108,0.015,0.217,0.015,0.325
			c0.248,5.292,4.75,9.377,10.042,9.114c5.214,0,9.439-4.224,9.439-9.438v-17.33c42.705-3.404,59.261-28.47,59.726-55.548
			C512.001,259.794,481.365,248.653,452.74,240.917z M433.089,235.811c-16.866-4.951-30.018-10.057-30.018-24.447
			s11.914-24.757,30.018-26.149V235.811z M452.585,327.565v-56.229c17.33,5.245,30.946,12.069,30.946,27.758
			C483.531,310.854,475.485,324.78,452.585,327.565z"/>
	</g>
</g>
<g>
</g>
<g>
</g>
<g>
</g>
<g>
</g>
<g>
</g>
<g>
</g>
<g>
</g>
<g>
</g>
<g>
</g>
<g>
</g>
<g>
</g>
<g>
</g>
<g>
</g>
<g>
</g>
<g>
</g>
</svg>
