<?xml version="1.0" encoding="iso-8859-1"?>
<!-- Generator: Adobe Illustrator 19.0.0, SVG Export Plug-In . SVG Version: 6.00 Build 0)  -->
<svg version="1.1" id="Capa_1" xmlns="http://www.w3.org/2000/svg" xmlns:xlink="http://www.w3.org/1999/xlink" x="0px" y="0px"
	 viewBox="0 0 512 512" style="enable-background:new 0 0 512 512;" xml:space="preserve">
<g>
	<g>
		<path d="M227.317,90.687c-74.401,0-134.923,60.522-134.923,134.923c0,74.401,60.522,134.923,134.923,134.923
			S362.24,300.011,362.24,225.61C362.24,151.209,301.718,90.687,227.317,90.687z M227.317,317.564
			c-50.704,0-91.954-41.25-91.954-91.954s41.25-91.954,91.954-91.954s91.954,41.25,91.954,91.954S278.02,317.564,227.317,317.564z"
			/>
	</g>
</g>
<g>
	<g>
		<path d="M503.996,475.304L399.537,371.018c33.258-39.295,53.411-90.021,53.411-145.429C452.948,101.193,351.756,0,227.36,0
			S1.728,101.214,1.728,225.61s101.214,225.589,225.589,225.589c53.54,0,102.739-18.842,141.455-50.124l104.823,104.652
			c4.189,4.168,9.69,6.273,15.19,6.273c5.5,0,11-2.105,15.211-6.316C512.375,497.305,512.353,483.705,503.996,475.304z
			 M227.317,408.229c-100.698,0-182.619-81.921-182.619-182.619S126.618,42.991,227.317,42.991s182.619,81.921,182.619,182.619
			S328.015,408.229,227.317,408.229z"/>
	</g>
</g>
<g>
</g>
<g>
</g>
<g>
</g>
<g>
</g>
<g>
</g>
<g>
</g>
<g>
</g>
<g>
</g>
<g>
</g>
<g>
</g>
<g>
</g>
<g>
</g>
<g>
</g>
<g>
</g>
<g>
</g>
</svg>
