<?xml version="1.0" encoding="iso-8859-1"?>
<!-- Generator: Adobe Illustrator 19.0.0, SVG Export Plug-In . SVG Version: 6.00 Build 0)  -->
<svg version="1.1" id="Capa_1" xmlns="http://www.w3.org/2000/svg" xmlns:xlink="http://www.w3.org/1999/xlink" x="0px" y="0px"
	 viewBox="0 0 511.989 511.989" style="enable-background:new 0 0 511.989 511.989;" xml:space="preserve">
<g>
	<g>
		<path d="M164.486,6.239c-7.892-7.892-22.397-7.892-30.29,0c-3.84,4.053-6.186,9.599-6.186,15.145c0,1.493,0.213,2.773,0.427,4.266
			c0.213,1.28,0.64,2.56,1.28,3.84c0.427,1.28,1.067,2.56,1.92,3.84c0.64,1.067,1.706,2.133,2.56,3.2
			c4.053,3.84,9.599,6.186,15.145,6.186c1.493,0,2.773-0.235,4.266-0.427c1.28-0.213,2.56-0.64,3.839-1.28
			c1.28-0.427,2.56-1.067,3.84-1.92c1.067-0.64,2.133-1.706,3.2-2.56c0.853-1.067,1.92-2.133,2.56-3.2
			c0.853-1.28,1.493-2.56,1.92-3.84c0.64-1.28,1.067-2.56,1.28-3.84c0.213-1.493,0.427-2.773,0.427-4.266
			C170.672,15.838,168.326,10.292,164.486,6.239z"/>
	</g>
</g>
<g>
	<g>
		<path d="M271.139,6.239c-7.892-7.892-22.184-7.892-30.289,0c-3.84,4.053-6.186,9.599-6.186,15.145s2.346,11.092,6.186,15.145
			c1.066,0.853,2.133,1.92,3.2,2.56c1.28,0.853,2.56,1.493,3.839,1.92c1.28,0.64,2.56,1.067,3.84,1.28
			c1.493,0.213,2.773,0.427,4.266,0.427c1.28,0,2.773-0.235,4.266-0.427c1.28-0.213,2.56-0.64,3.84-1.28
			c1.28-0.427,2.56-1.067,3.84-1.92c1.067-0.64,2.133-1.706,3.2-2.56c0.853-1.067,1.706-2.133,2.56-3.2
			c0.853-1.28,1.493-2.56,1.92-3.84c0.64-1.28,1.067-2.56,1.28-3.84c0.213-1.493,0.427-2.773,0.427-4.266
			C277.325,15.838,274.979,10.292,271.139,6.239z"/>
	</g>
</g>
<g>
	<g>
		<path d="M447.971,170.699h-63.992V64.045h-42.661v106.653h-21.331h-42.661V64.045h-42.661v106.653h-42.661h-21.331V64.045h-42.661
			v106.653H64.019c-11.775,0-21.331,9.556-21.331,21.331v63.992v191.976c0,35.281,28.711,63.992,63.992,63.992h298.629
			c35.302,0,63.992-28.711,63.992-63.992V256.021v-63.992C469.301,180.233,459.767,170.699,447.971,170.699z M213.333,213.36h85.323
			v42.661c0,23.528-19.134,42.661-42.661,42.661c-23.528,0-42.661-19.134-42.661-42.661V213.36z M85.349,213.36h85.323v42.661
			c0,23.528-19.134,42.661-42.661,42.661c-23.528,0-42.661-19.134-42.661-42.661V213.36z M426.64,447.997
			c0,11.753-9.577,21.331-21.331,21.331H106.68c-11.753,0-21.331-9.577-21.331-21.331V329.484
			c12.606,7.338,27.047,11.86,42.661,11.86c25.597,0,48.335-11.561,63.992-29.479c15.657,17.918,38.395,29.479,63.992,29.479
			s48.335-11.561,63.992-29.479c15.657,17.918,38.395,29.479,63.992,29.479c15.614,0,30.055-4.522,42.661-11.86V447.997z
			 M426.64,256.021c0,23.528-19.134,42.661-42.661,42.661c-23.528,0-42.661-19.134-42.661-42.661V213.36h85.323V256.021z"/>
	</g>
</g>
<g>
	<g>
		<path d="M377.793,6.239c-2.133-1.92-4.479-3.413-7.039-4.479c-5.119-2.346-11.092-2.346-16.211,0
			c-2.773,1.067-4.906,2.56-7.039,4.479c-3.84,4.053-6.186,9.599-6.186,15.145s2.346,11.092,6.186,15.145
			c4.053,3.84,9.599,6.186,15.145,6.186c5.546,0,11.092-2.389,15.145-6.186c3.84-4.053,6.186-9.599,6.186-15.145
			S381.632,10.292,377.793,6.239z"/>
	</g>
</g>
<g>
</g>
<g>
</g>
<g>
</g>
<g>
</g>
<g>
</g>
<g>
</g>
<g>
</g>
<g>
</g>
<g>
</g>
<g>
</g>
<g>
</g>
<g>
</g>
<g>
</g>
<g>
</g>
<g>
</g>
</svg>
