<?xml version="1.0" encoding="iso-8859-1"?>
<!-- Generator: Adobe Illustrator 19.0.0, SVG Export Plug-In . SVG Version: 6.00 Build 0)  -->
<svg version="1.1" id="Capa_1" xmlns="http://www.w3.org/2000/svg" xmlns:xlink="http://www.w3.org/1999/xlink" x="0px" y="0px"
	 viewBox="0 0 512.002 512.002" style="enable-background:new 0 0 512.002 512.002;" xml:space="preserve">
<g>
	<g>
		<path d="M128.062,232.478v-85.616c18.263,3.08,35.483,10.575,50.206,21.828c2.935,2.013,6.379,3.104,9.944,3.153
			c11.424,0,20.737-9.192,20.858-20.616c0.024-4.899-1.892-9.604-5.336-13.097c-21.271-18.215-47.95-28.959-75.915-30.56V78.708
			c0-8.174-6.621-14.795-14.795-14.795c-0.17-0.024-0.34-0.024-0.509-0.024c-8.295-0.121-15.134,6.524-15.256,14.819v27.164
			c-54.571,3.881-91.68,37.594-91.68,82.463c0,56.026,45.597,71.306,90.467,84.161v97.016c-23.672-3.177-45.985-13-64.273-28.377
			c-3.444-2.741-7.713-4.269-12.127-4.366c-11.181,0.776-19.791,10.138-19.646,21.343c0.34,4.511,2.328,8.731,5.578,11.884
			c24.982,22.508,57.094,35.459,90.71,36.623v26.679c0,0.17,0.024,0.34,0.024,0.509c0.388,8.295,7.446,14.698,15.741,14.286
			c8.174,0,14.795-6.621,14.795-14.795v-26.679c66.213-5.578,92.892-44.87,94.105-87.314
			C220.955,262.068,172.932,244.605,128.062,232.478z M96.047,224.474c-26.437-7.761-47.053-15.765-47.053-38.321
			s18.675-38.806,47.053-40.989V224.474z M126.85,368.3v-88.284c27.407,8.489,48.508,18.918,48.508,43.657
			C175.358,342.106,162.746,363.934,126.85,368.3z"/>
	</g>
</g>
<g>
	<g>
		<path d="M419.109,232.478v-85.616c18.263,3.08,35.483,10.575,50.206,21.828c2.935,2.013,6.379,3.104,9.944,3.153
			c11.424,0,20.737-9.192,20.858-20.616c0.024-4.899-1.892-9.604-5.336-13.097c-21.271-18.215-47.95-28.959-75.915-30.56V78.708
			c0-8.174-6.621-14.795-14.795-14.795c-0.17-0.024-0.34-0.024-0.509-0.024c-8.295-0.121-15.134,6.524-15.256,14.819v27.164
			c-54.571,3.881-91.68,37.594-91.68,82.463c0,56.026,45.597,71.306,90.71,82.948V368.3c-23.672-3.177-45.985-13-64.273-28.377
			c-3.444-2.741-7.713-4.269-12.127-4.366c-11.181,0.776-19.791,10.138-19.646,21.343c-0.024,4.899,1.892,9.605,5.336,13.097
			c24.982,22.508,57.094,35.459,90.71,36.623v26.679c0,0.17,0.024,0.34,0.024,0.509c0.388,8.295,7.446,14.698,15.741,14.286
			c8.174,0,14.795-6.621,14.795-14.795v-26.679c66.213-5.578,92.892-44.87,94.105-87.314
			C512.002,262.068,463.979,244.605,419.109,232.478z M340.042,186.153c0-22.556,18.675-38.806,47.053-40.989c0,0,0,79.31,0,79.31
			C360.657,216.713,340.042,208.709,340.042,186.153z M417.897,368.3v-88.284c27.407,8.489,48.508,18.918,48.508,43.657
			C466.404,342.106,453.792,363.934,417.897,368.3z"/>
	</g>
</g>
<g>
</g>
<g>
</g>
<g>
</g>
<g>
</g>
<g>
</g>
<g>
</g>
<g>
</g>
<g>
</g>
<g>
</g>
<g>
</g>
<g>
</g>
<g>
</g>
<g>
</g>
<g>
</g>
<g>
</g>
</svg>
