<?xml version="1.0" encoding="iso-8859-1"?>
<!-- Generator: Adobe Illustrator 19.0.0, SVG Export Plug-In . SVG Version: 6.00 Build 0)  -->
<svg version="1.1" id="Capa_1" xmlns="http://www.w3.org/2000/svg" xmlns:xlink="http://www.w3.org/1999/xlink" x="0px" y="0px"
	 viewBox="0 0 512 512" style="enable-background:new 0 0 512 512;" xml:space="preserve">
<g>
	<g>
		<path d="M502.421,24.856c-5.995-3.947-13.589-4.629-20.139-1.792l-141.44,60.629L178.176,22.68
			c-0.107-0.021-0.213-0.021-0.32-0.064c-0.704-0.256-1.429-0.341-2.176-0.512c-0.96-0.235-1.899-0.533-2.88-0.619
			c-0.768-0.085-1.515,0-2.283,0.021c-0.96,0-1.899-0.043-2.837,0.085c-0.725,0.085-1.408,0.341-2.133,0.512
			c-0.981,0.235-1.963,0.469-2.923,0.853c-0.107,0.043-0.235,0.064-0.363,0.107l-149.333,64C5.077,90.413,0,98.136,0,106.669
			v362.667c0,7.168,3.605,13.845,9.579,17.813c3.541,2.325,7.659,3.52,11.755,3.52c2.859,0,5.717-0.555,8.405-1.728l141.44-60.629
			l162.645,60.992c0.213,0.085,0.448,0.043,0.661,0.128c2.24,0.747,4.523,1.237,6.848,1.237c2.603,0,5.12-0.619,7.552-1.557
			c0.277-0.107,0.576-0.064,0.832-0.171l149.333-64c7.872-3.349,12.949-11.072,12.949-19.605V42.669
			C512,35.501,508.395,28.824,502.421,24.856z M149.333,391.256L42.667,436.973V120.728L149.333,75.01V391.256z M320,438.53l-128-48
			V73.453l128,48V438.53z M469.333,391.277l-106.667,45.717V120.728L469.333,75.01V391.277z"/>
	</g>
</g>
<g>
</g>
<g>
</g>
<g>
</g>
<g>
</g>
<g>
</g>
<g>
</g>
<g>
</g>
<g>
</g>
<g>
</g>
<g>
</g>
<g>
</g>
<g>
</g>
<g>
</g>
<g>
</g>
<g>
</g>
</svg>
