<?xml version="1.0" encoding="utf-8"?>
<!-- Generator: Adobe Illustrator 22.1.0, SVG Export Plug-In . SVG Version: 6.00 Build 0)  -->
<svg version="1.1" id="Layer_1" xmlns="http://www.w3.org/2000/svg" xmlns:xlink="http://www.w3.org/1999/xlink" x="0px" y="0px"
	 viewBox="0 0 24 24" style="enable-background:new 0 0 24 24;" xml:space="preserve">
<style type="text/css">
	.st0{fill-rule:evenodd;clip-rule:evenodd;}
</style>
<path class="st0" d="M20,7H4C3.4,7,3,6.6,3,6v0c0-0.6,0.4-1,1-1h16c0.6,0,1,0.4,1,1v0C21,6.6,20.6,7,20,7z M21,12L21,12
	c0-0.6-0.4-1-1-1H4c-0.6,0-1,0.4-1,1v0c0,0.6,0.4,1,1,1h16C20.6,13,21,12.6,21,12z M21,18L21,18c0-0.6-0.4-1-1-1H4c-0.6,0-1,0.4-1,1
	v0c0,0.6,0.4,1,1,1h16C20.6,19,21,18.6,21,18z"/>
</svg>
