<?xml version="1.0" encoding="iso-8859-1"?>
<!-- Generator: Adobe Illustrator 19.0.0, SVG Export Plug-In . SVG Version: 6.00 Build 0)  -->
<svg version="1.1" id="Capa_1" xmlns="http://www.w3.org/2000/svg" xmlns:xlink="http://www.w3.org/1999/xlink" x="0px" y="0px"
	 viewBox="0 0 512.031 512.031" style="enable-background:new 0 0 512.031 512.031;" xml:space="preserve">
<g>
	<g>
		<path d="M442.194,405.871c-19.124-34.498-62.729-47.139-97.226-27.993c-8.738,4.835-16.045,11.232-21.813,18.647l-30.031-54.338
			c50.196-10.039,92.955-43.886,113.467-91.372c29.164-67.412,41.826-141.785,36.623-215.052l-1.106-15.612
			c-0.651-9.584-7.546-17.563-16.956-19.645c-9.302-2.06-19.016,2.277-23.656,10.69L255.937,274.971L110.119,11.219
			c-4.662-8.413-14.332-12.728-23.656-10.69c-9.389,2.06-16.284,10.104-16.956,19.666l-1.062,15.568
			c-5.247,73.267,7.416,147.639,36.601,215.052c20.555,47.572,63.466,81.485,113.771,91.437l-29.922,54.207
			c-5.768-7.437-13.075-13.855-21.835-18.691c-34.498-19.146-78.102-6.505-97.226,27.993v0.022
			c-19.081,34.519-6.505,78.124,28.014,97.227c10.95,6.049,22.789,8.912,34.498,8.912c25.217,0,49.719-13.335,62.729-36.926
			c0.672-1.236,1.019-2.559,1.626-3.816c0.65-0.846,1.388-1.583,1.908-2.537l57.373-103.97l57.503,103.97
			c0.455,0.824,1.106,1.474,1.648,2.212c0.672,1.409,1.062,2.884,1.821,4.25c13.031,23.591,37.533,36.926,62.75,36.926
			c11.709,0,23.569-2.884,34.498-8.912C448.72,484.016,461.275,440.39,442.194,405.871z M157.149,454.05
			c-7.524,13.617-24.719,18.539-38.314,11.037c-13.595-7.524-18.561-24.719-11.058-38.335c7.589-13.574,24.74-18.496,38.336-11.037
			C159.708,423.239,164.673,440.433,157.149,454.05z M144.855,233.578c-17.672-40.851-28.665-84.542-32.589-128.862l106.94,193.412
			C186.248,289.108,158.645,265.517,144.855,233.578z M399.348,104.868c-3.925,44.255-14.918,87.881-32.59,128.732
			c-13.747,31.787-41.198,55.335-74.026,64.442L399.348,104.868z M393.233,465.174c-13.66,7.459-30.79,2.515-38.335-11.037
			c-7.502-13.617-2.559-30.812,11.037-38.336c4.315-2.363,8.977-3.513,13.595-3.513c9.931,0,19.601,5.291,24.74,14.549
			C411.772,440.455,406.829,457.628,393.233,465.174z"/>
	</g>
</g>
<g>
</g>
<g>
</g>
<g>
</g>
<g>
</g>
<g>
</g>
<g>
</g>
<g>
</g>
<g>
</g>
<g>
</g>
<g>
</g>
<g>
</g>
<g>
</g>
<g>
</g>
<g>
</g>
<g>
</g>
</svg>
