<?xml version="1.0" encoding="iso-8859-1"?>
<!-- Generator: Adobe Illustrator 19.0.0, SVG Export Plug-In . SVG Version: 6.00 Build 0)  -->
<svg version="1.1" id="Capa_1" xmlns="http://www.w3.org/2000/svg" xmlns:xlink="http://www.w3.org/1999/xlink" x="0px" y="0px"
	 viewBox="0 0 512 512" style="enable-background:new 0 0 512 512;" xml:space="preserve">
<g>
	<g>
		<path d="M170.667,0c-47.061,0-85.333,38.272-85.333,85.333c0,47.061,38.272,85.333,85.333,85.333S256,132.395,256,85.333
			S217.728,0,170.667,0z M170.667,128C147.136,128,128,108.864,128,85.333c0-23.531,19.136-42.667,42.667-42.667
			c23.531,0,42.667,19.136,42.667,42.667C213.333,108.864,194.197,128,170.667,128z"/>
	</g>
</g>
<g>
	<g>
		<path d="M192,192h-42.667c-70.592,0-128,57.408-128,128c0,11.797,9.557,21.333,21.333,21.333S64,331.797,64,320
			c0-47.061,38.272-85.333,85.333-85.333H192c11.776,0,21.333-9.557,21.333-21.333S203.776,192,192,192z"/>
	</g>
</g>
<g>
	<g>
		<path d="M341.333,170.667C294.272,170.667,256,208.939,256,256s38.272,85.333,85.333,85.333c47.061,0,85.333-38.272,85.333-85.333
			S388.395,170.667,341.333,170.667z M341.333,298.667c-23.531,0-42.667-19.136-42.667-42.667s19.136-42.667,42.667-42.667
			C364.864,213.333,384,232.469,384,256S364.864,298.667,341.333,298.667z"/>
	</g>
</g>
<g>
	<g>
		<path d="M362.667,362.667H320c-70.592,0-128,57.408-128,128c0,11.797,9.557,21.333,21.333,21.333s21.333-9.536,21.333-21.333
			c0-47.061,38.272-85.333,85.333-85.333h42.667c47.061,0,85.333,38.272,85.333,85.333c0,11.797,9.536,21.333,21.333,21.333
			c11.797,0,21.333-9.536,21.333-21.333C490.667,420.075,433.259,362.667,362.667,362.667z"/>
	</g>
</g>
<g>
</g>
<g>
</g>
<g>
</g>
<g>
</g>
<g>
</g>
<g>
</g>
<g>
</g>
<g>
</g>
<g>
</g>
<g>
</g>
<g>
</g>
<g>
</g>
<g>
</g>
<g>
</g>
<g>
</g>
</svg>
