<?xml version="1.0" encoding="iso-8859-1"?>
<!-- Generator: Adobe Illustrator 19.0.0, SVG Export Plug-In . SVG Version: 6.00 Build 0)  -->
<svg version="1.1" id="Capa_1" xmlns="http://www.w3.org/2000/svg" xmlns:xlink="http://www.w3.org/1999/xlink" x="0px" y="0px"
	 viewBox="0 0 512 512" style="enable-background:new 0 0 512 512;" xml:space="preserve">
<g>
	<g>
		<path d="M490.667,138.667H277.333v42.667h192v277.333h-384c-23.531,0-42.667-19.136-42.667-42.667V96H0v320
			c0,47.061,38.272,85.333,85.333,85.333h405.333c11.797,0,21.333-9.536,21.333-21.333V160
			C512,148.224,502.464,138.667,490.667,138.667z"/>
	</g>
</g>
<g>
	<g>
		<path d="M85.333,53.333h405.333V10.667H85.333C38.272,10.667,0,48.939,0,96s38.272,85.333,85.333,85.333h405.333v-42.667H85.333
			c-23.531,0-42.667-19.136-42.667-42.667S61.803,53.333,85.333,53.333z"/>
	</g>
</g>
<g>
	<g>
		<polygon points="342.187,286.507 282.667,277.76 256,223.787 229.333,277.76 169.813,286.507 212.907,328.533 202.667,387.84 
			256,359.893 309.333,387.84 299.093,328.533 		"/>
	</g>
</g>
<g>
</g>
<g>
</g>
<g>
</g>
<g>
</g>
<g>
</g>
<g>
</g>
<g>
</g>
<g>
</g>
<g>
</g>
<g>
</g>
<g>
</g>
<g>
</g>
<g>
</g>
<g>
</g>
<g>
</g>
</svg>
