<?xml version="1.0" encoding="iso-8859-1"?>
<!-- Generator: Adobe Illustrator 19.0.0, SVG Export Plug-In . SVG Version: 6.00 Build 0)  -->
<svg version="1.1" id="Capa_1" xmlns="http://www.w3.org/2000/svg" xmlns:xlink="http://www.w3.org/1999/xlink" x="0px" y="0px"
	 viewBox="0 0 512 512" style="enable-background:new 0 0 512 512;" xml:space="preserve">
<g>
	<g>
		<path d="M256,0C114.837,0,0,114.837,0,256s114.837,256,256,256s256-114.837,256-256S397.163,0,256,0z M256,471.685
			c-118.929,0-215.685-96.756-215.685-215.685S137.071,40.315,256,40.315c118.949,0,215.685,96.756,215.685,215.685
			S374.929,471.685,256,471.685z"/>
	</g>
</g>
<g>
	<g>
		<path d="M256,40.315V0c-74.361,0-114.495,131.89-114.495,256S181.639,512,256,512v-40.315c-30.962,0-74.18-82.041-74.18-215.685
			C181.82,122.376,225.018,40.315,256,40.315z"/>
	</g>
</g>
<g>
	<g>
		<path d="M256,0v40.315c30.962,0,74.18,82.061,74.18,215.685c0,133.644-43.218,215.685-74.18,215.685V512
			c74.381,0,114.494-131.89,114.494-256S330.361,0,256,0z"/>
	</g>
</g>
<g>
	<g>
		<rect x="20.157" y="235.843" width="471.685" height="40.315"/>
	</g>
</g>
<g>
</g>
<g>
</g>
<g>
</g>
<g>
</g>
<g>
</g>
<g>
</g>
<g>
</g>
<g>
</g>
<g>
</g>
<g>
</g>
<g>
</g>
<g>
</g>
<g>
</g>
<g>
</g>
<g>
</g>
</svg>
