<?xml version="1.0" encoding="iso-8859-1"?>
<!-- Generator: Adobe Illustrator 19.0.0, SVG Export Plug-In . SVG Version: 6.00 Build 0)  -->
<svg version="1.1" id="Capa_1" xmlns="http://www.w3.org/2000/svg" xmlns:xlink="http://www.w3.org/1999/xlink" x="0px" y="0px"
	 viewBox="0 0 512 512" style="enable-background:new 0 0 512 512;" xml:space="preserve">
<g>
	<g>
		<path d="M448,85.333H213.333V64c0-23.531-19.136-42.667-42.667-42.667h-64C83.136,21.333,64,40.469,64,64v21.333
			c-35.285,0-64,28.715-64,64v277.333c0,35.285,28.715,64,64,64h384c35.285,0,64-28.715,64-64V149.333
			C512,114.048,483.285,85.333,448,85.333z M106.645,64h64.021v21.333h-64.021V64z M469.333,426.667
			c0,11.776-9.557,21.333-21.333,21.333H64c-11.776,0-21.333-9.557-21.333-21.333V149.333C42.667,137.557,52.224,128,64,128h21.333
			H192h256c11.776,0,21.333,9.557,21.333,21.333V426.667z"/>
	</g>
</g>
<g>
	<g>
		<path d="M128,160.427H85.333C73.536,160.427,64,169.963,64,181.76c0,11.797,9.536,21.333,21.333,21.333H128
			c11.797,0,21.333-9.536,21.333-21.333S139.797,160.427,128,160.427z"/>
	</g>
</g>
<g>
	<g>
		<path d="M256,181.333c-58.816,0-106.667,47.851-106.667,106.667c0,58.816,47.851,106.667,106.667,106.667
			S362.667,346.816,362.667,288C362.667,229.184,314.816,181.333,256,181.333z M256,352c-35.285,0-64-28.715-64-64s28.715-64,64-64
			s64,28.715,64,64S291.285,352,256,352z"/>
	</g>
</g>
<g>
</g>
<g>
</g>
<g>
</g>
<g>
</g>
<g>
</g>
<g>
</g>
<g>
</g>
<g>
</g>
<g>
</g>
<g>
</g>
<g>
</g>
<g>
</g>
<g>
</g>
<g>
</g>
<g>
</g>
</svg>
